<svg width="277" height="284" viewBox="0 0 277 284" fill="none" xmlns="http://www.w3.org/2000/svg">
<path fill-rule="evenodd" clip-rule="evenodd" d="M163.23 105.047C192.963 55.1507 194.238 35.255 194.267 24.4712C194.296 13.6873 191.261 4.77498 177.887 1.21918C161.17 -3.22556 147.374 5.1001 142.769 16.2005C140.311 22.1234 140.476 38.9677 140.606 52.1882V52.1884V52.1885C140.669 58.6653 140.725 64.2723 140.458 67.2994C137.763 97.9656 139.883 101.66 142.409 106.062L142.409 106.063C142.579 106.359 142.751 106.659 142.924 106.971C146.339 113.136 155.484 114.09 163.23 105.047ZM218.44 113.562C214.88 117.019 205.974 120.594 189.229 127.316L189.226 127.317C182.178 130.147 173.74 133.534 163.728 137.705C157.031 140.494 155.414 138.581 157.215 135.182C157.784 134.107 158.898 133.41 161.038 132.072C164.317 130.021 170.005 126.463 179.831 117.731C182.69 115.192 185.701 112.065 188.624 109.029C192.786 104.706 196.771 100.568 199.882 98.5751C206.544 94.3067 215.785 92.6912 219.021 97.5962C221.61 101.52 223.498 108.65 218.44 113.562ZM119.443 144.743C88.2964 145.588 73.0529 150.075 68.1862 153.193C63.3196 156.312 60.4938 160.507 62.7912 167.679C65.663 176.644 77.9938 174.918 84.3374 173.808C89.3803 172.925 99.7636 169.557 106.412 166.064C121.998 157.876 123.452 155.41 124.878 152.722C126.66 149.364 125.776 145.672 119.443 144.743ZM75.1473 240.894C75.0279 241.305 74.9124 241.703 74.7955 242.092C72.5437 249.575 70.8318 274.114 80.7809 279.764C93.2172 286.828 102.316 284.756 109.34 274.648C113.598 268.521 115.513 251.959 116.863 240.288L116.863 240.288L116.863 240.287L116.863 240.286L116.863 240.284C117.284 236.649 117.649 233.488 118.013 231.265C121.917 207.453 127.459 195.292 130.671 188.246C132.425 184.397 133.483 182.075 133.199 180.212C132.193 173.628 126.775 172.141 117.771 179.727C80.8042 221.414 77.3277 233.386 75.1473 240.894ZM159.227 224.058C154.982 218.577 151.915 205.794 145.226 169.793C143.901 162.66 148.183 156.971 151.603 158.976C152.711 159.626 153.154 160.641 154.089 162.781C155.465 165.932 157.906 171.521 165.099 181.972C167.063 184.827 169.61 188.033 172.143 191.223L172.143 191.223L172.143 191.223C176.254 196.4 180.331 201.533 181.829 205.048C184.874 212.193 184.119 221.961 177.528 225.2C172.254 227.791 163.472 229.538 159.227 224.058ZM226.305 203.42C237.576 211.857 244.16 216.785 249.39 217.343C259.856 218.459 271.609 204.855 275.24 194.346C279.778 181.211 269.185 169.885 258.473 165.017C252.207 162.17 234.362 159.681 221.815 157.931L221.814 157.931L221.814 157.931C217.309 157.303 213.487 156.77 211.13 156.35C209.182 156.003 207.348 155.675 205.62 155.366L205.619 155.366L205.619 155.366L205.619 155.366C179.186 150.647 177.493 150.344 172.962 151.96C166.932 154.111 166.329 161.175 175.003 168.387C199.035 183.006 215.02 194.972 226.305 203.42ZM116.697 52.5952C121.102 58.9619 128.499 79.0276 133.537 120.221C133.229 128.622 128.872 129.879 124.575 127.599C123.157 126.847 122.572 124.862 121.538 121.357C120.064 116.36 117.679 108.272 110.67 96.2628C108.444 92.4483 104.188 87.5172 99.9605 82.6198C94.5286 76.3265 89.1447 70.0889 88.1781 66.3479C86.0161 57.9799 87.9733 49.804 98.46 45.7947C106.849 42.5873 112.293 46.2284 116.697 52.5952ZM102.706 118.486C64.681 83.6495 44.6182 72.4543 35.2915 70.1558C25.9647 67.8573 7.67031 78.8625 2.27544 89.0485C-4.46815 101.781 5.08529 124.191 13.8929 130.298C18.3956 133.421 34.3234 131.252 47.9583 129.396C55.5255 128.366 62.3864 127.432 66.196 127.552C84.8732 128.141 91.9043 130.346 95.775 131.561C97.979 132.252 99.1583 132.622 100.88 132.189C106.807 130.697 109.189 126.727 102.706 118.486Z" fill="#02CE91" fill-opacity="0.7"/>
<path fill-rule="evenodd" clip-rule="evenodd" d="M163.23 105.047C192.963 55.1507 194.238 35.255 194.267 24.4712C194.296 13.6873 191.261 4.77498 177.887 1.21918C161.17 -3.22556 147.374 5.1001 142.769 16.2005C140.311 22.1234 140.476 38.9677 140.606 52.1882V52.1884V52.1885C140.669 58.6653 140.725 64.2723 140.458 67.2994C137.763 97.9656 139.883 101.66 142.409 106.062L142.409 106.063C142.579 106.359 142.751 106.659 142.924 106.971C146.339 113.136 155.484 114.09 163.23 105.047ZM218.44 113.562C214.88 117.019 205.974 120.594 189.229 127.316L189.226 127.317C182.178 130.147 173.74 133.534 163.728 137.705C157.031 140.494 155.414 138.581 157.215 135.182C157.784 134.107 158.898 133.41 161.038 132.072C164.317 130.021 170.005 126.463 179.831 117.731C182.69 115.192 185.701 112.065 188.624 109.029C192.786 104.706 196.771 100.568 199.882 98.5751C206.544 94.3067 215.785 92.6912 219.021 97.5962C221.61 101.52 223.498 108.65 218.44 113.562ZM119.443 144.743C88.2964 145.588 73.0529 150.075 68.1862 153.193C63.3196 156.312 60.4938 160.507 62.7912 167.679C65.663 176.644 77.9938 174.918 84.3374 173.808C89.3803 172.925 99.7636 169.557 106.412 166.064C121.998 157.876 123.452 155.41 124.878 152.722C126.66 149.364 125.776 145.672 119.443 144.743ZM75.1473 240.894C75.0279 241.305 74.9124 241.703 74.7955 242.092C72.5437 249.575 70.8318 274.114 80.7809 279.764C93.2172 286.828 102.316 284.756 109.34 274.648C113.598 268.521 115.513 251.959 116.863 240.288L116.863 240.288L116.863 240.287L116.863 240.286L116.863 240.284C117.284 236.649 117.649 233.488 118.013 231.265C121.917 207.453 127.459 195.292 130.671 188.246C132.425 184.397 133.483 182.075 133.199 180.212C132.193 173.628 126.775 172.141 117.771 179.727C80.8042 221.414 77.3277 233.386 75.1473 240.894ZM159.227 224.058C154.982 218.577 151.915 205.794 145.226 169.793C143.901 162.66 148.183 156.971 151.603 158.976C152.711 159.626 153.154 160.641 154.089 162.781C155.465 165.932 157.906 171.521 165.099 181.972C167.063 184.827 169.61 188.033 172.143 191.223L172.143 191.223L172.143 191.223C176.254 196.4 180.331 201.533 181.829 205.048C184.874 212.193 184.119 221.961 177.528 225.2C172.254 227.791 163.472 229.538 159.227 224.058ZM226.305 203.42C237.576 211.857 244.16 216.785 249.39 217.343C259.856 218.459 271.609 204.855 275.24 194.346C279.778 181.211 269.185 169.885 258.473 165.017C252.207 162.17 234.362 159.681 221.815 157.931L221.814 157.931L221.814 157.931C217.309 157.303 213.487 156.77 211.13 156.35C209.182 156.003 207.348 155.675 205.62 155.366L205.619 155.366L205.619 155.366L205.619 155.366C179.186 150.647 177.493 150.344 172.962 151.96C166.932 154.111 166.329 161.175 175.003 168.387C199.035 183.006 215.02 194.972 226.305 203.42ZM116.697 52.5952C121.102 58.9619 128.499 79.0276 133.537 120.221C133.229 128.622 128.872 129.879 124.575 127.599C123.157 126.847 122.572 124.862 121.538 121.357C120.064 116.36 117.679 108.272 110.67 96.2628C108.444 92.4483 104.188 87.5172 99.9605 82.6198C94.5286 76.3265 89.1447 70.0889 88.1781 66.3479C86.0161 57.9799 87.9733 49.804 98.46 45.7947C106.849 42.5873 112.293 46.2284 116.697 52.5952ZM102.706 118.486C64.681 83.6495 44.6182 72.4543 35.2915 70.1558C25.9647 67.8573 7.67031 78.8625 2.27544 89.0485C-4.46815 101.781 5.08529 124.191 13.8929 130.298C18.3956 133.421 34.3234 131.252 47.9583 129.396C55.5255 128.366 62.3864 127.432 66.196 127.552C84.8732 128.141 91.9043 130.346 95.775 131.561C97.979 132.252 99.1583 132.622 100.88 132.189C106.807 130.697 109.189 126.727 102.706 118.486Z" fill="url(#paint0_linear)" fill-opacity="0.7"/>
<defs>
<linearGradient id="paint0_linear" x1="2.20349" y1="89.1671" x2="102.186" y2="137.004" gradientUnits="userSpaceOnUse">
<stop stop-color="#15D199"/>
<stop offset="0.496118" stop-color="#32EDAA" stop-opacity="0.7"/>
<stop offset="1" stop-color="white" stop-opacity="0"/>
</linearGradient>
</defs>
</svg>
