<svg width="300" height="300" viewBox="0 0 300 300" fill="none" xmlns="http://www.w3.org/2000/svg">
<path fill-rule="evenodd" clip-rule="evenodd" d="M177.074 110.994C209.394 58.273 210.779 37.2509 210.811 25.8565C210.843 14.4622 207.543 5.0453 193.006 1.2882C174.834 -3.40817 159.839 5.38883 154.832 17.1177C152.161 23.3758 152.341 41.1737 152.482 55.1427C152.551 61.9863 152.611 67.9109 152.321 71.1094C149.391 103.512 151.696 107.416 154.441 112.067C154.626 112.38 154.814 112.697 155.001 113.027C158.713 119.541 168.654 120.549 177.074 110.994ZM205.335 134.524L205.334 134.524C197.672 137.514 188.5 141.093 177.615 145.5C170.335 148.448 168.578 146.426 170.535 142.835C171.154 141.699 172.365 140.963 174.691 139.549C178.255 137.382 184.438 133.622 195.12 124.396C198.226 121.713 201.499 118.409 204.677 115.202L204.677 115.202C209.202 110.634 213.533 106.262 216.915 104.156C224.156 99.6457 234.201 97.9388 237.719 103.121C240.533 107.268 242.585 114.801 237.087 119.991C233.218 123.644 223.537 127.421 205.335 134.524ZM129.478 152.937C95.6215 153.83 79.0518 158.571 73.7618 161.866C68.4718 165.162 65.4002 169.593 67.8975 177.171C71.019 186.644 84.4226 184.82 91.318 183.647C96.7997 182.715 108.086 179.156 115.313 175.465C132.255 166.814 133.835 164.209 135.386 161.368C137.323 157.82 136.361 153.919 129.478 152.937ZM81.3286 254.532L81.3285 254.532L81.3284 254.533C81.1987 254.967 81.0732 255.387 80.9462 255.797C78.4985 263.705 76.6377 289.632 87.4522 295.603C100.97 303.066 110.861 300.877 118.496 290.196C123.124 283.723 125.206 266.223 126.673 253.891C127.13 250.048 127.528 246.707 127.924 244.358C132.167 219.197 138.191 206.348 141.682 198.903C143.589 194.836 144.74 192.382 144.43 190.415C143.337 183.457 137.447 181.886 127.661 189.902C87.4776 233.948 83.6986 246.598 81.3286 254.532ZM172.722 236.742C168.108 230.952 164.774 217.445 157.504 179.406C156.063 171.868 160.718 165.857 164.436 167.977C165.639 168.663 166.121 169.735 167.137 171.996C168.633 175.325 171.287 181.231 179.105 192.274C181.241 195.291 184.009 198.679 186.763 202.049C191.231 207.519 195.662 212.942 197.291 216.656C200.601 224.205 199.78 234.526 192.615 237.949C186.883 240.687 177.337 242.533 172.722 236.742ZM245.637 214.936C257.888 223.851 265.044 229.058 270.729 229.647C282.106 230.827 294.881 216.452 298.828 205.349C303.761 191.469 292.247 179.502 280.602 174.359C273.791 171.35 254.393 168.721 240.755 166.872L240.754 166.872C235.858 166.208 231.703 165.645 229.14 165.201C227.034 164.836 225.05 164.492 223.18 164.167L223.151 164.162L223.151 164.162C194.418 159.175 192.577 158.856 187.653 160.563C181.098 162.835 180.443 170.3 189.871 177.92C215.994 193.366 233.369 206.01 245.637 214.936ZM126.493 55.5727C131.28 62.2999 139.322 83.5015 144.798 127.027C144.463 135.904 139.726 137.232 135.056 134.823C133.515 134.029 132.878 131.931 131.755 128.228C130.153 122.947 127.56 114.402 119.941 101.712C117.521 97.6821 112.895 92.4719 108.3 87.2972L108.3 87.2971L108.3 87.2971C102.395 80.6475 96.5433 74.0568 95.4926 70.104C93.1425 61.2624 95.27 52.6235 106.669 48.3873C115.788 44.9983 121.705 48.8456 126.493 55.5727ZM111.284 125.194C69.9516 88.385 48.1434 76.5561 38.0053 74.1275C27.8672 71.6989 7.98123 83.3271 2.11703 94.0898C-5.21322 107.543 8.09128 124.047 17.6651 130.5C23.7384 134.594 47.0741 134.649 62.1504 134.685C65.9671 134.694 69.2545 134.702 71.5984 134.774C91.9004 135.395 99.5432 137.726 103.751 139.009C106.146 139.739 107.428 140.13 109.299 139.672C115.742 138.096 118.332 133.902 111.284 125.194Z" fill="#00BBE9" fill-opacity="0.7"/>
<path fill-rule="evenodd" clip-rule="evenodd" d="M177.074 110.994C209.394 58.273 210.779 37.2509 210.811 25.8565C210.843 14.4622 207.543 5.0453 193.006 1.2882C174.834 -3.40817 159.839 5.38883 154.832 17.1177C152.161 23.3758 152.341 41.1737 152.482 55.1427C152.551 61.9863 152.611 67.9109 152.321 71.1094C149.391 103.512 151.696 107.416 154.441 112.067C154.626 112.38 154.814 112.697 155.001 113.027C158.713 119.541 168.654 120.549 177.074 110.994ZM205.335 134.524L205.334 134.524C197.672 137.514 188.5 141.093 177.615 145.5C170.335 148.448 168.578 146.426 170.535 142.835C171.154 141.699 172.365 140.963 174.691 139.549C178.255 137.382 184.438 133.622 195.12 124.396C198.226 121.713 201.499 118.409 204.677 115.202L204.677 115.202C209.202 110.634 213.533 106.262 216.915 104.156C224.156 99.6457 234.201 97.9388 237.719 103.121C240.533 107.268 242.585 114.801 237.087 119.991C233.218 123.644 223.537 127.421 205.335 134.524ZM129.478 152.937C95.6215 153.83 79.0518 158.571 73.7618 161.866C68.4718 165.162 65.4002 169.593 67.8975 177.171C71.019 186.644 84.4226 184.82 91.318 183.647C96.7997 182.715 108.086 179.156 115.313 175.465C132.255 166.814 133.835 164.209 135.386 161.368C137.323 157.82 136.361 153.919 129.478 152.937ZM81.3286 254.532L81.3285 254.532L81.3284 254.533C81.1987 254.967 81.0732 255.387 80.9462 255.797C78.4985 263.705 76.6377 289.632 87.4522 295.603C100.97 303.066 110.861 300.877 118.496 290.196C123.124 283.723 125.206 266.223 126.673 253.891C127.13 250.048 127.528 246.707 127.924 244.358C132.167 219.197 138.191 206.348 141.682 198.903C143.589 194.836 144.74 192.382 144.43 190.415C143.337 183.457 137.447 181.886 127.661 189.902C87.4776 233.948 83.6986 246.598 81.3286 254.532ZM172.722 236.742C168.108 230.952 164.774 217.445 157.504 179.406C156.063 171.868 160.718 165.857 164.436 167.977C165.639 168.663 166.121 169.735 167.137 171.996C168.633 175.325 171.287 181.231 179.105 192.274C181.241 195.291 184.009 198.679 186.763 202.049C191.231 207.519 195.662 212.942 197.291 216.656C200.601 224.205 199.78 234.526 192.615 237.949C186.883 240.687 177.337 242.533 172.722 236.742ZM245.637 214.936C257.888 223.851 265.044 229.058 270.729 229.647C282.106 230.827 294.881 216.452 298.828 205.349C303.761 191.469 292.247 179.502 280.602 174.359C273.791 171.35 254.393 168.721 240.755 166.872L240.754 166.872C235.858 166.208 231.703 165.645 229.14 165.201C227.034 164.836 225.05 164.492 223.18 164.167L223.151 164.162L223.151 164.162C194.418 159.175 192.577 158.856 187.653 160.563C181.098 162.835 180.443 170.3 189.871 177.92C215.994 193.366 233.369 206.01 245.637 214.936ZM126.493 55.5727C131.28 62.2999 139.322 83.5015 144.798 127.027C144.463 135.904 139.726 137.232 135.056 134.823C133.515 134.029 132.878 131.931 131.755 128.228C130.153 122.947 127.56 114.402 119.941 101.712C117.521 97.6821 112.895 92.4719 108.3 87.2972L108.3 87.2971L108.3 87.2971C102.395 80.6475 96.5433 74.0568 95.4926 70.104C93.1425 61.2624 95.27 52.6235 106.669 48.3873C115.788 44.9983 121.705 48.8456 126.493 55.5727ZM111.284 125.194C69.9516 88.385 48.1434 76.5561 38.0053 74.1275C27.8672 71.6989 7.98123 83.3271 2.11703 94.0898C-5.21322 107.543 8.09128 124.047 17.6651 130.5C23.7384 134.594 47.0741 134.649 62.1504 134.685C65.9671 134.694 69.2545 134.702 71.5984 134.774C91.9004 135.395 99.5432 137.726 103.751 139.009C106.146 139.739 107.428 140.13 109.299 139.672C115.742 138.096 118.332 133.902 111.284 125.194Z" fill="url(#paint0_linear)" fill-opacity="0.7"/>
<defs>
<linearGradient id="paint0_linear" x1="2.39207" y1="94.2151" x2="109.826" y2="147.033" gradientUnits="userSpaceOnUse">
<stop stop-color="#00B3DF"/>
<stop offset="1" stop-color="white" stop-opacity="0"/>
</linearGradient>
</defs>
</svg>
